<?xml version="1.0" encoding="UTF-8"?>
<svg xmlns="http://www.w3.org/2000/svg" xmlns:xlink="http://www.w3.org/1999/xlink" width="25px" height="25px" viewBox="0 0 25 25" version="1.1">
<g id="surface1">
<path style=" stroke:none;fill-rule:nonzero;fill:rgb(0%,0%,0%);fill-opacity:1;" d="M 12.078125 23.566406 L 5.554688 23.566406 C 3.785156 23.566406 2.347656 22.125 2.347656 20.359375 L 2.347656 4.640625 C 2.347656 2.871094 3.789062 1.433594 5.554688 1.433594 L 12.183594 1.433594 C 12.582031 1.433594 12.898438 1.113281 12.898438 0.714844 C 12.898438 0.316406 12.582031 0 12.183594 0 L 5.554688 0 C 2.992188 0 0.914062 2.085938 0.914062 4.640625 L 0.914062 20.359375 C 0.914062 22.921875 3 25 5.554688 25 L 12.078125 25 C 12.472656 25 12.792969 24.683594 12.792969 24.285156 C 12.792969 23.886719 12.46875 23.566406 12.078125 23.566406 Z M 12.078125 23.566406 "/>
<path style=" stroke:none;fill-rule:nonzero;fill:rgb(0%,0%,0%);fill-opacity:1;" d="M 23.875 11.996094 L 19.324219 7.445312 C 19.042969 7.164062 18.59375 7.164062 18.3125 7.445312 C 18.03125 7.726562 18.03125 8.175781 18.3125 8.457031 L 21.640625 11.789062 L 7.109375 11.789062 C 6.710938 11.789062 6.394531 12.105469 6.394531 12.503906 C 6.394531 12.902344 6.710938 13.222656 7.109375 13.222656 L 21.640625 13.222656 L 18.3125 16.554688 C 18.03125 16.835938 18.03125 17.285156 18.3125 17.566406 C 18.449219 17.703125 18.632812 17.777344 18.816406 17.777344 C 18.996094 17.777344 19.179688 17.710938 19.320312 17.566406 L 23.871094 13.015625 C 24.15625 12.726562 24.15625 12.273438 23.875 11.996094 Z M 23.875 11.996094 "/>
</g>
</svg>
